<?xml version="1.0" standalone="no"?>
<!DOCTYPE svg PUBLIC "-//W3C//DTD SVG 20010904//EN"
 "http://www.w3.org/TR/2001/REC-SVG-20010904/DTD/svg10.dtd">
<svg version="1.0" xmlns="http://www.w3.org/2000/svg"
 width="512.000000pt" height="512.000000pt" viewBox="0 0 512.000000 512.000000"
 preserveAspectRatio="xMidYMid meet">

<g transform="translate(0.000000,512.000000) scale(0.100000,-0.100000)"
fill="#000000" stroke="none">
<path d="M132 3899 c-46 -13 -109 -79 -122 -128 -7 -27 -9 -409 -8 -1233 l3
-1193 24 -38 c13 -21 42 -50 64 -65 l41 -27 2425 0 2426 0 38 24 c21 13 50 42
65 64 l27 41 0 1216 0 1216 -27 41 c-15 22 -44 51 -65 64 -36 23 -48 24 -227
27 -207 4 -237 -2 -261 -49 -19 -35 -19 -63 -1 -98 23 -44 52 -51 226 -51
l160 0 0 -1150 0 -1150 -2360 0 -2360 0 0 1150 0 1150 1770 0 c1350 0 1775 3
1795 12 29 13 55 55 55 88 0 33 -26 75 -55 88 -33 15 -3581 16 -3633 1z"/>
<path d="M4121 3896 c-87 -48 -50 -186 49 -186 51 0 100 49 100 99 0 75 -83
124 -149 87z"/>
<path d="M451 3496 c-52 -29 -50 2 -51 -934 0 -948 -2 -914 55 -940 38 -17
4172 -17 4210 0 57 26 55 -8 55 938 0 946 2 912 -55 938 -40 19 -4180 17
-4214 -2z m4069 -936 l0 -750 -1960 0 -1960 0 0 750 0 750 1960 0 1960 0 0
-750z"/>
<path d="M1047 2990 c-166 -42 -250 -201 -183 -346 31 -66 67 -93 195 -144
133 -53 158 -66 171 -90 25 -47 -48 -97 -124 -84 -50 8 -91 28 -134 65 -66 58
-157 27 -169 -57 -5 -39 -2 -45 37 -88 76 -82 223 -135 334 -121 198 26 318
215 237 372 -40 79 -98 119 -261 183 -99 39 -110 46 -110 72 0 27 62 52 109
43 20 -3 60 -20 88 -36 65 -36 102 -37 141 -4 36 30 45 69 27 112 -35 82 -239
152 -358 123z"/>
<path d="M1604 2984 c-60 -30 -73 -107 -25 -155 26 -26 36 -29 90 -29 l61 0 0
-290 c0 -323 4 -346 61 -375 27 -14 39 -15 70 -6 68 20 68 24 71 363 l3 303
67 5 c80 6 107 26 115 87 5 35 1 45 -25 74 l-30 34 -214 3 c-177 2 -218 -1
-244 -14z"/>
<path d="M2505 2990 c-11 -4 -30 -18 -41 -31 -26 -29 -284 -703 -284 -741 0
-16 12 -41 29 -60 24 -27 36 -33 69 -33 53 0 83 29 111 106 l22 59 134 0 134
0 22 -59 c28 -77 58 -106 111 -106 33 0 45 6 69 33 17 19 29 44 29 59 0 25
-234 661 -266 724 -14 28 -69 59 -101 58 -10 0 -27 -4 -38 -9z m69 -424 c14
-37 26 -70 26 -72 0 -2 -25 -4 -56 -4 -49 0 -55 2 -50 18 26 69 51 131 52 129
1 -1 14 -33 28 -71z"/>
<path d="M3128 2985 c-57 -32 -58 -42 -58 -425 0 -387 1 -395 62 -426 26 -13
38 -14 69 -5 55 16 68 44 71 151 l3 91 94 -108 c51 -59 107 -116 125 -126 72
-41 158 24 141 105 -4 16 -45 72 -91 125 l-84 96 43 27 c191 121 173 382 -32
481 -39 19 -66 23 -181 26 -108 3 -140 0 -162 -12z m289 -220 c18 -20 23 -35
18 -54 -10 -44 -40 -61 -106 -61 l-59 0 0 68 c0 38 3 72 8 76 4 4 31 6 61 4
44 -4 59 -10 78 -33z"/>
<path d="M3806 2985 c-41 -22 -55 -44 -56 -88 0 -29 7 -45 29 -68 26 -26 36
-29 90 -29 l61 0 0 -295 c0 -327 2 -340 62 -371 26 -13 38 -14 69 -5 68 20 68
24 71 363 l3 303 67 5 c80 6 107 26 115 87 5 35 1 45 -25 74 l-30 34 -214 3
c-177 2 -218 0 -242 -13z"/>
</g>
</svg>
