<?xml version="1.0" standalone="no"?>
<!DOCTYPE svg PUBLIC "-//W3C//DTD SVG 20010904//EN"
 "http://www.w3.org/TR/2001/REC-SVG-20010904/DTD/svg10.dtd">
<svg version="1.0" xmlns="http://www.w3.org/2000/svg"
 width="512.000000pt" height="512.000000pt" viewBox="0 0 512.000000 512.000000"
 preserveAspectRatio="xMidYMid meet">

<g transform="translate(0.000000,512.000000) scale(0.100000,-0.100000)"
fill="#000000" stroke="none">
<path d="M554 5111 c-12 -5 -31 -22 -43 -37 -21 -26 -21 -33 -21 -455 l0 -429
29 -32 c24 -27 36 -33 71 -33 35 0 47 6 71 33 l29 32 0 170 0 170 114 0 c107
0 116 2 144 25 36 30 45 69 27 112 -21 50 -58 63 -180 63 l-105 0 0 95 0 95
131 0 131 0 29 29 c40 40 40 89 0 133 l-29 33 -189 2 c-103 1 -198 -2 -209 -6z"/>
<path d="M1244 5110 c-54 -22 -54 -19 -54 -492 l0 -437 23 -26 c48 -56 133
-40 163 30 20 50 21 820 0 869 -24 57 -75 79 -132 56z"/>
<path d="M1638 5105 c-15 -8 -32 -24 -38 -35 -6 -12 -10 -175 -10 -453 0 -422
1 -435 20 -460 24 -31 81 -45 115 -29 55 25 60 46 65 311 l5 246 178 -257 c97
-141 189 -266 203 -277 31 -24 74 -27 112 -7 57 29 57 31 57 493 l0 425 -34
30 c-29 26 -39 30 -75 25 -27 -4 -49 -15 -63 -32 -23 -26 -23 -31 -23 -286 0
-142 -3 -259 -7 -259 -5 1 -91 122 -193 271 -102 149 -192 277 -201 285 -25
22 -80 27 -111 9z"/>
<path d="M2604 5110 c-54 -22 -54 -19 -54 -492 l0 -437 23 -26 c14 -17 36 -28
63 -32 36 -5 46 -1 75 25 l34 30 0 442 0 442 -33 29 c-33 30 -67 36 -108 19z"/>
<path d="M3191 5099 c-86 -27 -162 -101 -185 -179 -20 -67 -20 -93 -1 -159 23
-75 80 -130 178 -169 42 -18 111 -46 153 -63 121 -50 150 -88 114 -147 -54
-88 -213 -79 -324 18 -43 38 -84 47 -124 26 -39 -20 -52 -44 -52 -92 0 -95
210 -214 379 -214 289 0 444 321 242 503 -49 44 -81 61 -240 123 -91 36 -126
55 -134 72 -23 50 37 102 118 102 42 0 124 -30 161 -59 29 -23 83 -28 115 -11
24 13 49 61 49 94 0 80 -188 177 -338 175 -26 0 -76 -9 -111 -20z"/>
<path d="M3924 5110 c-54 -22 -54 -19 -54 -492 l0 -437 23 -26 c14 -17 36 -28
63 -32 36 -5 46 -1 75 25 l34 30 3 176 4 176 159 0 159 0 0 -174 c0 -167 1
-176 23 -201 14 -17 36 -28 63 -32 36 -5 46 -1 75 25 l34 30 0 442 0 442 -34
30 c-29 26 -39 30 -74 25 -75 -10 -81 -25 -87 -215 l-5 -167 -157 -3 -156 -2
-4 166 -3 166 -33 29 c-33 30 -67 36 -108 19z"/>
<path d="M351 3766 c-53 -29 -50 70 -51 -1813 l0 -1753 -110 0 c-121 0 -154
-10 -176 -51 -26 -52 -10 -110 37 -135 41 -20 507 -20 548 0 69 36 66 137 -7
175 l-30 16 466 967 467 968 223 0 c123 0 221 -3 219 -7 -3 -5 -221 -457 -486
-1005 -350 -726 -481 -1007 -481 -1032 0 -77 93 -123 154 -75 31 24 70 103
671 1351 l370 768 395 0 395 0 149 -310 c82 -170 159 -318 171 -330 12 -11 38
-23 58 -27 32 -5 41 -1 72 30 26 26 35 43 34 68 0 22 -45 127 -128 299 l-128
265 221 3 c121 1 222 -1 224 -5 1 -5 211 -440 467 -968 l463 -960 -30 -16
c-74 -38 -75 -144 -3 -177 40 -19 507 -17 544 2 47 25 63 83 37 135 -22 41
-55 51 -176 51 l-110 0 0 1750 c0 1904 3 1792 -55 1818 -40 19 -4380 17 -4414
-2z m669 -446 l0 -260 -260 0 -260 0 0 260 0 260 260 0 260 0 0 -260z m720 0
l0 -260 -260 0 -260 0 0 260 0 260 260 0 260 0 0 -260z m720 0 l0 -260 -260 0
-260 0 0 260 0 260 260 0 260 0 0 -260z m720 0 l0 -260 -260 0 -260 0 0 260 0
260 260 0 260 0 0 -260z m720 0 l0 -260 -260 0 -260 0 0 260 0 260 260 0 260
0 0 -260z m720 0 l0 -260 -260 0 -260 0 0 260 0 260 260 0 260 0 0 -260z
m-3600 -720 l0 -260 -260 0 -260 0 0 260 0 260 260 0 260 0 0 -260z m720 0 l0
-260 -260 0 -260 0 0 260 0 260 260 0 260 0 0 -260z m720 0 l0 -260 -260 0
-260 0 0 260 0 260 260 0 260 0 0 -260z m720 0 l0 -260 -260 0 -260 0 0 260 0
260 260 0 260 0 0 -260z m720 0 l0 -260 -260 0 -260 0 0 260 0 260 260 0 260
0 0 -260z m720 0 l0 -260 -260 0 -260 0 0 260 0 260 260 0 260 0 0 -260z
m-3350 -464 c0 -6 -760 -1580 -765 -1585 -3 -2 -5 354 -5 792 l0 797 385 0
c212 0 385 -2 385 -4z m3350 -793 c0 -438 -2 -794 -5 -792 -5 5 -765 1579
-765 1585 0 2 173 4 385 4 l385 0 0 -797z"/>
<path d="M2489 1771 c-28 -28 -29 -33 -29 -121 0 -88 1 -93 29 -121 23 -23 38
-29 71 -29 33 0 48 6 71 29 28 28 29 33 29 121 0 88 -1 93 -29 121 -23 23 -38
29 -71 29 -33 0 -48 -6 -71 -29z"/>
<path d="M3495 1261 c-37 -16 -60 -51 -60 -93 0 -33 6 -45 33 -69 45 -41 98
-40 137 1 77 80 -8 202 -110 161z"/>
<path d="M2508 1094 c-15 -8 -32 -23 -38 -34 -5 -10 -10 -84 -10 -165 0 -141
1 -147 24 -170 45 -45 107 -45 152 0 23 23 24 29 24 170 0 81 -5 155 -10 166
-13 23 -61 49 -92 49 -13 -1 -35 -7 -50 -16z"/>
<path d="M3656 829 c-15 -17 -26 -43 -26 -60 0 -16 55 -143 129 -297 230 -479
230 -479 306 -469 51 7 85 44 85 93 0 39 -314 701 -352 741 -17 18 -32 23 -69
23 -40 0 -51 -4 -73 -31z"/>
<path d="M2489 271 c-27 -28 -29 -34 -29 -110 0 -91 12 -126 51 -147 35 -18
63 -18 98 0 39 21 51 56 51 147 0 76 -2 82 -29 110 -41 41 -101 41 -142 0z"/>
</g>
</svg>
