<svg width="77" height="29" viewBox="0 0 77 29" fill="none" xmlns="http://www.w3.org/2000/svg">
<path d="M3.7 29C2.86667 29 2.45 28.5 2.45 27.5C2.45 22.5333 2.8 17.25 3.5 11.65C3.16667 11.5833 2.81667 11.5333 2.45 11.5C2.11667 11.4333 1.78333 11.3667 1.45 11.3C0.516667 11.1667 0.0500001 10.9 0.0500001 10.5C0.0500001 10.1 0.25 9.85 0.65 9.75H0.6C0.3 9.75 0.35 9.73333 0.75 9.7C1.15 9.63333 1.66667 9.56667 2.3 9.5C2.93333 9.43333 3.43333 9.4 3.8 9.4C4 8.23333 4.4 6.85 5 5.25C5.33333 4.28333 5.6 3.45 5.8 2.75C6.03333 2.01667 6.21667 1.43333 6.35 1C6.51667 0.333332 6.95 -2.02656e-06 7.65 -2.02656e-06C7.95 -2.02656e-06 8.06667 0.149998 8 0.449998C7.73333 1.38333 7.4 2.6 7 4.1C6.6 5.56667 6.16667 7.31667 5.7 9.35C6 9.35 6.36667 9.35 6.8 9.35C7.26667 9.35 7.8 9.36667 8.4 9.4C9 9.43333 9.51667 9.46667 9.95 9.5C10.4167 9.5 10.7833 9.5 11.05 9.5C11.35 9.5 11.5 9.61667 11.5 9.85C11.5 10.05 11.3667 10.2667 11.1 10.5C10.8667 10.7333 10.6 10.85 10.3 10.85C9.9 10.85 9.3 10.9167 8.5 11.05C7.7 11.15 6.68333 11.3167 5.45 11.55C4.95 15.65 4.7 21.2167 4.7 28.25C4.7 28.75 4.36667 29 3.7 29ZM22.768 26.6C22.6013 26.6 22.4513 26.5333 22.318 26.4C21.418 25.4667 20.9513 24.1 20.918 22.3C20.918 22.1667 20.9346 22.0167 20.968 21.85C21.0013 21.65 21.018 21.4333 21.018 21.2L21.068 20.15V20C21.068 19.4 20.8513 19.1833 20.418 19.35C19.7513 19.8167 18.8513 20.5 17.718 21.4C16.618 22.2667 15.2846 23.3333 13.718 24.6C13.0513 25.2333 12.2013 25.55 11.168 25.55C10.568 25.55 10.0513 25.2333 9.61797 24.6C9.21797 23.9333 9.06797 23.3 9.16797 22.7C9.26797 21.8333 9.61797 20.9 10.218 19.9C10.818 18.8667 11.5513 17.85 12.418 16.85C13.318 15.8167 14.268 14.9167 15.268 14.15C16.3013 13.35 17.2846 12.7833 18.218 12.45C18.5846 12.3167 18.9346 12.2167 19.268 12.15C19.6013 12.0833 19.9346 12.05 20.268 12.05C21.7013 12.05 22.418 12.55 22.418 13.55C22.418 13.8833 22.2846 14.05 22.018 14.05C21.918 14.05 21.818 14.05 21.718 14.05C21.618 14.0167 21.518 13.9667 21.418 13.9C20.818 13.4 20.268 13.15 19.768 13.15C19.268 13.15 18.5346 13.45 17.568 14.05C16.8013 14.5167 16.0513 15.1 15.318 15.8C14.5846 16.5 13.8846 17.2833 13.218 18.15C12.5846 18.9833 12.0846 19.7333 11.718 20.4C11.3513 21.0333 11.1346 21.6 11.068 22.1C11.0346 22.2333 11.018 22.4 11.018 22.6C11.018 23.1333 11.2346 23.4 11.668 23.4C12.2013 23.4 13.2013 22.9167 14.668 21.95C18.168 19.6167 20.6013 17.55 21.968 15.75C22.3013 15.3167 22.6013 14.7333 22.868 14C23.0346 13.5333 23.3846 13.3 23.918 13.3C24.518 13.3 24.818 13.6333 24.818 14.3C24.818 14.8333 24.568 15.5 24.068 16.3C23.268 18.7333 22.868 20.4167 22.868 21.35C22.9346 22.7833 23.2846 23.9333 23.918 24.8C24.018 24.9 24.068 25.0333 24.068 25.2C24.068 25.5 23.918 25.8 23.618 26.1C23.318 26.4333 23.0346 26.6 22.768 26.6ZM29.8762 25.65C29.5428 25.65 29.3262 25.2667 29.2262 24.5C29.1262 23.7 29.0762 22.8833 29.0762 22.05C29.0762 21.5167 29.0762 21.0333 29.0762 20.6C29.1095 20.1333 29.1262 19.7833 29.1262 19.55C29.1262 19.2167 29.1428 18.8 29.1762 18.3C29.2095 17.7667 29.2595 17.1667 29.3262 16.5C29.4262 15.1333 29.4762 14.1 29.4762 13.4C29.4762 13.0667 29.4595 12.75 29.4262 12.45C29.3928 12.1167 29.3762 11.8167 29.3762 11.55V11.35C29.3762 10.95 29.5928 10.75 30.0262 10.75C30.3595 10.75 30.5428 10.95 30.5762 11.35C30.6428 11.7167 30.6928 12.4667 30.7262 13.6C30.7595 14.7333 30.7928 16.2333 30.8262 18.1C30.8262 18.6 30.9262 18.85 31.1262 18.85C31.3595 18.85 31.7095 18.4667 32.1762 17.7C33.1428 16.1 34.1928 14.75 35.3262 13.65C36.1595 12.8833 36.9262 12.5 37.6262 12.5C38.4595 12.5 39.1762 12.8667 39.7762 13.6C39.9762 13.8333 40.0762 14.0833 40.0762 14.35C40.0762 14.7833 39.8928 15 39.5262 15C39.3928 15 39.2428 14.95 39.0762 14.85L39.0262 14.9C38.3928 14.4333 37.9762 14.2 37.7762 14.2C36.9762 14.2 36.2262 14.6333 35.5262 15.5C33.0928 18.5 31.5928 21.5333 31.0262 24.6C30.8928 25.3 30.5095 25.65 29.8762 25.65ZM42.5148 26.75C41.4482 26.75 40.5482 26.3333 39.8148 25.5C39.1482 24.7333 38.8148 23.8667 38.8148 22.9C38.8148 21.1 39.6315 19.1833 41.2648 17.15C41.9315 16.2833 42.6482 15.5167 43.4148 14.85C44.1815 14.1833 44.9815 13.5833 45.8148 13.05C45.9815 12.95 46.2148 12.9 46.5148 12.9C47.4815 12.9 47.9648 13.1333 47.9648 13.6C47.9648 13.7333 47.8648 13.8833 47.6648 14.05V14.1C48.1648 14.8 48.6648 15.5333 49.1648 16.3C49.6648 17.0667 49.9148 17.9667 49.9148 19C49.9148 19.8667 49.6815 20.75 49.2148 21.65C48.7815 22.55 48.1815 23.4 47.4148 24.2C46.6815 24.9667 45.8815 25.5833 45.0148 26.05C44.1482 26.5167 43.3148 26.75 42.5148 26.75ZM42.5648 25.2C43.3982 25.1667 44.2815 24.8333 45.2148 24.2C46.1482 23.5333 46.9482 22.7333 47.6148 21.8C48.3148 20.8667 48.6815 19.9833 48.7148 19.15C48.7815 17.85 48.1148 16.3833 46.7148 14.75C45.2815 15.7833 44.0148 17 42.9148 18.4C41.6148 20.1 40.9648 21.6333 40.9648 23C40.9648 24.4667 41.4982 25.2 42.5648 25.2ZM55.5031 26.75C54.4365 26.75 53.5365 26.3333 52.8031 25.5C52.1365 24.7333 51.8031 23.8667 51.8031 22.9C51.8031 21.1 52.6198 19.1833 54.2531 17.15C54.9198 16.2833 55.6365 15.5167 56.4031 14.85C57.1698 14.1833 57.9698 13.5833 58.8031 13.05C58.9698 12.95 59.2031 12.9 59.5031 12.9C60.4698 12.9 60.9531 13.1333 60.9531 13.6C60.9531 13.7333 60.8531 13.8833 60.6531 14.05V14.1C61.1531 14.8 61.6531 15.5333 62.1531 16.3C62.6531 17.0667 62.9031 17.9667 62.9031 19C62.9031 19.8667 62.6698 20.75 62.2031 21.65C61.7698 22.55 61.1698 23.4 60.4031 24.2C59.6698 24.9667 58.8698 25.5833 58.0031 26.05C57.1365 26.5167 56.3031 26.75 55.5031 26.75ZM55.5531 25.2C56.3865 25.1667 57.2698 24.8333 58.2031 24.2C59.1365 23.5333 59.9365 22.7333 60.6031 21.8C61.3031 20.8667 61.6698 19.9833 61.7031 19.15C61.7698 17.85 61.1031 16.3833 59.7031 14.75C58.2698 15.7833 57.0031 17 55.9031 18.4C54.6031 20.1 53.9531 21.6333 53.9531 23C53.9531 24.4667 54.4865 25.2 55.5531 25.2ZM68.6414 29C67.8081 29 67.3914 28.5 67.3914 27.5C67.3914 22.5333 67.7414 17.25 68.4414 11.65C68.1081 11.5833 67.7581 11.5333 67.3914 11.5C67.0581 11.4333 66.7247 11.3667 66.3914 11.3C65.4581 11.1667 64.9914 10.9 64.9914 10.5C64.9914 10.1 65.1914 9.85 65.5914 9.75H65.5414C65.2414 9.75 65.2914 9.73333 65.6914 9.7C66.0914 9.63333 66.6081 9.56667 67.2414 9.5C67.8747 9.43333 68.3747 9.4 68.7414 9.4C68.9414 8.23333 69.3414 6.85 69.9414 5.25C70.2747 4.28333 70.5414 3.45 70.7414 2.75C70.9747 2.01667 71.1581 1.43333 71.2914 1C71.4581 0.333332 71.8914 -2.02656e-06 72.5914 -2.02656e-06C72.8914 -2.02656e-06 73.0081 0.149998 72.9414 0.449998C72.6747 1.38333 72.3414 2.6 71.9414 4.1C71.5414 5.56667 71.1081 7.31667 70.6414 9.35C70.9414 9.35 71.3081 9.35 71.7414 9.35C72.2081 9.35 72.7414 9.36667 73.3414 9.4C73.9414 9.43333 74.4581 9.46667 74.8914 9.5C75.3581 9.5 75.7247 9.5 75.9914 9.5C76.2914 9.5 76.4414 9.61667 76.4414 9.85C76.4414 10.05 76.3081 10.2667 76.0414 10.5C75.8081 10.7333 75.5414 10.85 75.2414 10.85C74.8414 10.85 74.2414 10.9167 73.4414 11.05C72.6414 11.15 71.6247 11.3167 70.3914 11.55C69.8914 15.65 69.6414 21.2167 69.6414 28.25C69.6414 28.75 69.3081 29 68.6414 29Z" fill="#5CB680"/>
</svg>
