<?xml version="1.0" standalone="no"?>
<!DOCTYPE svg PUBLIC "-//W3C//DTD SVG 20010904//EN"
 "http://www.w3.org/TR/2001/REC-SVG-20010904/DTD/svg10.dtd">
<svg version="1.0" xmlns="http://www.w3.org/2000/svg"
 width="500.000000pt" height="500.000000pt" viewBox="0 0 500.000000 500.000000"
 preserveAspectRatio="xMidYMid meet">

<g transform="translate(0.000000,500.000000) scale(0.100000,-0.100000)"
fill="#000000" stroke="none">
<path d="M2818 3669 c-26 -15 -22 -33 27 -144 33 -76 40 -101 30 -103 -8 -2
-135 -18 -281 -36 -253 -31 -268 -32 -285 -15 -33 33 -145 88 -234 115 -79 24
-107 27 -225 27 -163 0 -249 -20 -386 -88 -174 -87 -235 -174 -169 -240 28
-29 74 -32 197 -15 152 21 1385 170 1409 170 24 0 32 -16 114 -205 49 -113 87
-206 84 -208 -2 -1 -31 -15 -64 -31 -134 -63 -259 -177 -334 -304 -45 -75 -96
-219 -106 -300 l-7 -53 -64 5 c-211 19 -194 15 -199 44 -44 234 -154 419 -320
537 -143 102 -290 149 -465 148 -253 -2 -479 -112 -624 -306 -353 -469 -101
-1136 473 -1252 100 -21 262 -16 356 9 314 85 551 366 582 689 l6 68 51 -5
c28 -3 85 -8 127 -11 l75 -6 12 -83 c38 -258 196 -478 427 -592 116 -57 186
-75 316 -81 226 -11 425 63 587 220 177 171 263 416 233 658 -47 374 -341 657
-721 694 -60 6 -205 -6 -241 -20 -12 -4 -21 6 -36 42 -12 26 -50 117 -87 201
-36 84 -66 154 -66 156 0 2 73 12 162 22 168 20 208 33 195 68 -4 9 -14 19
-24 23 -15 6 -305 -22 -350 -33 -15 -4 -26 14 -67 108 -42 100 -67 139 -85
138 -3 0 -14 -5 -23 -11z m-784 -254 c32 -9 83 -28 115 -42 l56 -26 -30 -8
c-33 -10 -757 -99 -800 -99 -39 0 -27 19 41 66 79 53 193 100 291 119 93 17
242 13 327 -10z m-321 -541 c263 -68 461 -275 522 -543 l14 -64 -127 7 c-70 4
-148 9 -174 12 -44 6 -47 8 -53 42 -17 91 -92 172 -180 196 -80 22 -211 28
-229 11 -14 -15 -11 -51 5 -61 5 -3 50 -8 101 -13 54 -4 109 -15 131 -26 40
-19 81 -71 92 -115 l6 -25 -181 13 c-140 10 -185 11 -196 1 -17 -14 -18 -43
-1 -57 6 -6 86 -16 177 -22 91 -6 171 -14 178 -16 21 -6 -17 -62 -62 -93 -38
-25 -46 -26 -175 -26 -134 0 -136 0 -139 -23 -6 -42 12 -49 133 -57 93 -6 123
-4 164 10 65 21 134 83 157 140 l19 45 75 -6 c41 -3 120 -9 175 -12 l100 -7
-2 -66 c-3 -82 -41 -205 -90 -287 -280 -472 -954 -467 -1230 10 -68 116 -102
293 -84 427 22 169 83 292 201 412 183 185 431 256 673 193z m1779 12 c167
-32 266 -84 383 -201 89 -89 135 -159 171 -263 82 -236 38 -485 -121 -682
-199 -248 -549 -329 -841 -195 -220 101 -377 313 -409 554 l-7 54 118 -7 c66
-3 149 -9 186 -12 48 -5 72 -3 83 6 18 15 19 44 2 58 -7 6 -96 17 -197 24
l-185 13 3 48 c4 61 45 188 82 252 41 70 108 149 171 201 58 48 183 118 200
112 11 -4 129 -264 129 -284 0 -6 -10 -19 -21 -30 -12 -10 -32 -41 -45 -69
-32 -68 -34 -207 -3 -298 43 -129 125 -232 224 -278 169 -81 310 15 323 217 8
132 -48 282 -141 378 -65 66 -125 97 -200 105 l-58 6 -60 139 c-33 76 -58 140
-55 143 6 6 105 20 158 22 20 0 69 -5 110 -13z m-47 -390 c46 -19 121 -90 152
-143 77 -132 83 -297 15 -375 -83 -92 -249 -6 -330 172 -37 81 -43 221 -12
285 34 71 98 93 175 61z"/>
</g>
</svg>
