<?xml version="1.0" standalone="no"?>
<!DOCTYPE svg PUBLIC "-//W3C//DTD SVG 20010904//EN"
 "http://www.w3.org/TR/2001/REC-SVG-20010904/DTD/svg10.dtd">
<svg version="1.0" xmlns="http://www.w3.org/2000/svg"
 width="920.000000pt" height="920.000000pt" viewBox="0 0 920.000000 920.000000"
 preserveAspectRatio="xMidYMid meet">

<g transform="translate(0.000000,920.000000) scale(0.100000,-0.100000)"
fill="#000000" stroke="none">
<path d="M4080 8761 c-73 -7 -97 -14 -166 -49 -303 -158 -568 -521 -524 -718
14 -63 48 -107 154 -199 122 -107 165 -169 179 -261 6 -37 -3 -116 -18 -165
-5 -14 5 -17 59 -21 87 -5 117 -30 184 -152 l53 -97 -23 -20 c-13 -11 -47 -32
-77 -46 -44 -21 -62 -24 -104 -19 -139 16 -253 166 -265 348 l-5 77 -89 -177
c-332 -655 -628 -1035 -1006 -1289 -85 -57 -324 -183 -346 -183 -7 0 -24 -26
-40 -57 -15 -32 -64 -120 -109 -196 -98 -169 -150 -292 -136 -320 37 -67 151
-141 270 -173 197 -53 519 19 519 117 0 11 -20 24 -61 38 -33 13 -59 26 -57
31 7 19 319 339 397 407 93 82 224 173 248 173 8 0 75 -61 149 -135 177 -178
170 -174 237 -141 59 29 84 27 93 -10 10 -39 0 -69 -85 -270 -128 -299 -230
-466 -356 -582 -127 -117 -222 -142 -459 -124 -243 19 -331 16 -428 -14 -106
-33 -322 -129 -430 -190 -248 -140 -562 -449 -801 -787 -371 -523 -593 -1095
-622 -1597 -25 -448 215 -1016 514 -1214 76 -51 157 -86 268 -118 68 -20 101
-23 263 -23 143 0 204 4 269 18 331 73 706 271 969 512 203 186 555 712 745
1115 152 323 197 523 197 875 0 307 -43 555 -190 1100 l-29 110 24 -30 c88
-107 247 -417 395 -765 124 -295 209 -488 246 -562 37 -73 41 -88 22 -88 -21
0 -100 -57 -157 -112 -144 -142 -216 -350 -285 -825 l-33 -222 41 -40 c88 -86
208 -109 376 -72 52 11 165 39 250 62 108 28 184 42 250 46 l95 5 33 -118
c177 -640 645 -1012 1200 -955 378 39 690 208 1048 565 448 449 788 1025 889
1506 45 214 65 531 46 741 -56 646 -341 1058 -789 1145 -204 39 -481 -6 -724
-117 -41 -19 -72 -29 -77 -23 -29 29 -126 409 -167 651 l-17 102 50 58 c111
129 177 232 224 348 31 76 38 63 14 -25 -25 -95 -16 -160 24 -160 37 0 197 52
278 90 437 204 627 644 559 1288 l-13 123 -43 44 c-125 128 -195 106 -449
-139 -254 -246 -363 -308 -542 -310 l-95 -1 79 -95 c100 -120 190 -257 218
-329 23 -59 36 -163 25 -206 -7 -27 -62 -95 -78 -95 -5 0 -7 4 -4 8 14 24 23
132 15 185 -17 107 -57 169 -204 312 -138 135 -155 157 -155 199 0 21 7 27 43
37 63 16 199 82 275 133 88 58 186 161 217 227 13 29 22 56 20 60 -9 14 -74
39 -103 39 -44 0 -68 -26 -106 -113 l-34 -79 -105 -42 c-108 -44 -210 -97
-284 -148 -38 -25 -43 -27 -57 -12 -9 8 -16 19 -16 24 0 17 53 71 114 117 131
99 159 137 131 179 -11 17 -25 24 -48 24 -39 0 -63 -15 -144 -92 -64 -61 -82
-68 -103 -43 -11 13 -10 22 3 50 9 19 26 79 37 134 53 262 -6 451 -141 451
-26 0 -30 -3 -24 -17 25 -60 45 -178 45 -271 0 -135 -11 -204 -75 -467 -29
-121 -56 -241 -60 -267 l-7 -47 -52 -5 c-28 -3 -114 -13 -191 -22 -77 -8 -171
-14 -210 -12 l-70 3 0 330 c0 317 -1 332 -21 376 -23 49 -56 89 -74 89 -13 0
-34 -47 -59 -136 -11 -39 -29 -78 -40 -88 -18 -16 -21 -15 -77 39 -110 105
-236 174 -370 202 -43 9 -80 17 -81 18 -2 1 17 22 40 47 24 25 77 103 118 174
66 116 114 183 124 172 2 -2 -5 -28 -15 -58 -24 -68 -27 -168 -5 -176 25 -10
79 33 115 92 39 64 107 144 123 144 5 0 56 -31 112 -68 57 -38 131 -79 165
-92 58 -22 64 -22 89 -7 15 9 71 32 125 51 100 36 155 66 174 97 10 15 -2 17
-141 22 -274 9 -414 73 -495 225 -31 58 -62 186 -48 199 4 5 94 8 199 8 181 0
194 1 228 22 19 12 41 34 47 48 26 57 33 55 -234 55 l-246 0 6 23 c14 53 18
214 6 272 -26 127 -100 229 -212 291 l-53 29 -190 1 c-104 1 -228 -1 -275 -5z
m384 -150 c15 -6 10 -10 -25 -20 -110 -33 -235 -117 -409 -276 -100 -92 -199
-170 -206 -163 -6 7 95 179 141 238 83 108 184 186 278 215 45 15 190 18 221
6z m80 -213 c-27 -90 -109 -195 -178 -230 -48 -25 -127 -28 -174 -9 l-33 14
51 28 c27 15 87 60 132 99 74 66 162 120 196 120 9 0 11 -7 6 -22z m-116
-1343 c235 -47 416 -218 494 -465 19 -63 23 -96 23 -210 0 -141 -10 -195 -57
-315 l-23 -60 -3 87 -3 87 -72 -50 c-106 -76 -107 -76 -107 -200 0 -96 28
-360 50 -469 l9 -45 -57 -59 c-316 -325 -615 -527 -902 -609 -150 -43 -143
-42 -135 -10 3 15 27 70 52 122 59 121 140 207 239 253 l69 33 210 5 c230 6
249 11 298 70 23 26 33 58 40 119 4 27 -259 10 -416 -28 l-78 -19 -50 62 c-27
33 -64 90 -82 126 -29 58 -32 74 -32 150 1 65 6 96 22 133 12 26 21 47 20 47
-1 0 -30 -9 -65 -20 -96 -30 -203 -36 -303 -16 -105 21 -248 89 -315 149 l-48
44 43 49 c42 47 147 203 351 521 171 266 303 414 425 474 112 55 263 71 403
44z m1241 -955 c1 -324 -68 -582 -218 -813 -35 -54 -65 -96 -67 -94 -3 2 11
37 31 78 43 92 86 264 120 479 33 213 80 450 101 520 l17 55 8 -40 c4 -22 8
-105 8 -185z m-3218 -323 c5 -19 -1 -56 -19 -117 -25 -83 -29 -90 -53 -90 -14
0 -59 -11 -99 -25 -74 -25 -144 -32 -168 -16 -11 7 -9 17 9 52 48 95 118 156
235 204 71 30 85 29 95 -8z m2468 -240 c-17 -41 -32 -28 -46 39 -15 70 -9 114
21 151 l21 28 7 -95 c6 -64 4 -104 -3 -123z m843 -348 c20 -11 20 -11 0 -32
-11 -12 -23 -32 -27 -45 -7 -25 -40 -46 -61 -38 -10 4 -14 23 -14 66 l0 60 41
0 c22 0 49 -5 61 -11z m206 -129 c32 -83 69 -217 92 -335 23 -123 27 -312 6
-360 l-13 -30 -31 33 c-38 40 -69 120 -89 227 -25 133 -20 559 6 529 4 -5 17
-34 29 -64z m-709 -7 c-29 -35 -195 -166 -295 -234 -101 -68 -273 -168 -571
-334 l-143 -80 0 -641 0 -641 55 -51 c30 -28 55 -56 55 -61 0 -5 -10 -13 -22
-17 -27 -8 -46 14 -123 142 -86 144 -248 495 -452 981 -3 8 26 28 82 55 79 38
95 42 184 46 l98 5 -7 31 c-4 17 -15 48 -24 68 -27 63 -22 94 22 121 81 52
684 398 787 453 92 49 351 173 364 174 2 0 -3 -8 -10 -17z m577 -400 c13 -92
27 -228 31 -300 l6 -133 -26 0 c-19 0 -37 -13 -63 -44 -40 -48 -79 -64 -93
-37 -12 22 -31 205 -31 294 0 155 37 283 103 354 22 24 42 41 44 39 3 -3 16
-80 29 -173z m-725 -78 c76 -167 111 -383 89 -552 -21 -165 -59 -267 -145
-381 -42 -56 -169 -161 -180 -150 -3 3 5 42 16 89 28 110 22 247 -21 499 -17
102 -34 237 -37 300 l-6 115 38 18 c20 10 73 42 117 72 44 30 85 55 90 55 5 0
22 -29 39 -65z m-1931 -63 c0 -5 18 -17 40 -27 41 -19 62 -57 43 -76 -6 -6
-34 -9 -64 -7 -52 3 -54 4 -57 34 -3 35 13 84 28 84 5 0 10 -4 10 -8z m3848
-88 c342 -70 564 -341 647 -791 23 -121 30 -412 16 -569 -24 -248 -62 -421
-135 -603 -143 -354 -365 -688 -660 -990 -212 -216 -405 -361 -621 -466 -211
-102 -356 -138 -555 -138 -152 1 -267 24 -395 82 -133 60 -186 102 -238 188
-59 99 -127 262 -177 423 -53 173 -53 172 -10 182 57 12 268 36 375 42 467 27
573 38 719 76 43 12 96 30 116 40 l37 19 -21 58 c-18 50 -21 79 -20 213 1 117
6 174 21 230 l19 75 210 1 c166 1 217 5 247 18 29 12 37 20 33 33 -25 80 -346
1642 -358 1738 -3 29 -2 30 107 68 231 82 464 108 643 71z m-4413 -10 c13 -8
63 -22 112 -31 88 -15 143 -34 162 -57 8 -9 -2 -30 -36 -76 -73 -101 -175
-261 -378 -595 -307 -504 -370 -597 -500 -739 -108 -117 -136 -167 -133 -230
2 -27 8 -51 13 -52 10 -3 85 87 222 266 171 224 352 492 698 1030 125 195 232
361 238 368 13 17 41 -8 71 -63 17 -32 21 -57 21 -125 -1 -105 -19 -163 -126
-396 -43 -94 -114 -258 -158 -365 -105 -257 -134 -319 -188 -412 -57 -97 -102
-144 -230 -235 -143 -101 -183 -159 -183 -262 0 -34 4 -60 10 -60 20 0 246
236 304 318 90 128 185 299 356 647 87 176 188 370 225 430 80 133 175 259
185 248 15 -16 80 -204 105 -300 96 -383 90 -845 -16 -1173 -116 -357 -454
-919 -719 -1194 -253 -263 -584 -449 -941 -528 -145 -32 -355 -32 -484 0 -110
28 -232 86 -309 150 -55 44 -60 53 -86 132 -15 47 -56 144 -93 215 -106 210
-122 295 -121 640 1 217 3 253 27 377 70 356 218 676 486 1044 192 264 384
470 591 636 236 189 494 321 760 392 73 19 86 19 115 0z m3539 -221 c2 -10 10
-45 16 -78 7 -33 47 -213 90 -400 116 -504 169 -771 186 -938 6 -59 4 -70 -12
-83 -27 -22 -183 -124 -189 -124 -11 0 -4 120 10 166 25 82 20 127 -19 178
-96 127 -163 355 -187 643 -12 139 -7 581 6 616 4 9 17 17 29 17 11 0 28 5 36
10 21 14 28 12 34 -7z m-244 -228 c0 -38 14 -138 74 -535 14 -91 28 -205 31
-255 3 -49 8 -111 11 -137 l5 -48 -372 0 -371 0 7 37 c19 101 82 165 253 251
136 70 184 106 213 163 25 50 24 61 -11 209 -16 69 -30 151 -30 183 0 51 4 61
33 92 42 46 140 105 149 90 4 -5 8 -28 8 -50z m-26 -1041 c27 -10 19 -58 -13
-82 -80 -59 -205 -109 -358 -142 -132 -29 -522 -79 -529 -68 -3 5 -1 31 6 57
38 160 224 223 680 230 74 1 136 4 139 7 6 6 57 5 75 -2z m-1306 -156 c-3 -77
-9 -115 -25 -150 -12 -27 -26 -48 -30 -48 -11 1 -96 118 -122 168 -12 23 -24
62 -28 87 l-6 45 108 0 107 0 -4 -102z m220 -51 c4 -206 -17 -261 -60 -152
-44 111 -31 238 29 285 14 11 26 20 27 20 0 0 2 -69 4 -153z m-638 34 c0 -10
20 -58 45 -107 38 -75 45 -96 45 -147 l0 -59 -102 4 c-119 5 -185 28 -238 84
-19 18 -32 35 -29 37 2 1 49 39 104 83 166 132 175 138 175 105z m1740 -99 c0
-5 -10 -18 -22 -29 -101 -91 -269 -138 -543 -153 -88 -4 -189 -5 -225 0 -36 4
-55 8 -43 9 22 1 198 51 407 115 66 20 154 43 195 51 85 15 231 19 231 7z m76
-287 c6 -39 19 -97 27 -130 9 -33 19 -90 23 -126 l6 -66 -34 -26 c-72 -55
-188 -96 -333 -117 -38 -5 -187 -17 -330 -25 -237 -14 -351 -24 -444 -41 l-33
-7 5 119 c2 66 10 169 17 229 l13 111 321 48 c412 62 717 105 735 103 10 -1
19 -25 27 -72z m-1228 15 c28 -56 29 -165 3 -260 -10 -36 -31 -115 -47 -176
l-29 -112 -98 -7 c-83 -6 -102 -4 -123 10 l-26 17 33 23 c72 49 122 142 170
320 47 172 70 236 82 233 7 -2 22 -24 35 -48z m-693 -32 c-21 -99 -100 -206
-184 -251 l-51 -28 0 155 0 156 121 0 121 0 -7 -32z"/>
<path d="M5730 7986 c0 -15 204 -129 439 -246 241 -120 403 -215 478 -278 14
-12 30 -52 47 -118 32 -118 61 -181 99 -208 l27 -20 28 21 c15 11 31 36 36 57
15 57 -13 124 -113 278 -49 76 -92 148 -95 160 -5 17 -34 36 -121 76 -339 159
-485 215 -653 251 -101 22 -172 33 -172 27z"/>
<path d="M7755 950 c-33 -5 -136 -16 -230 -25 -204 -19 -343 -40 -447 -66 -53
-13 -111 -19 -192 -19 -65 0 -116 -4 -116 -9 0 -5 8 -12 18 -14 42 -12 493 -6
671 8 108 8 257 16 331 18 l135 2 3 43 c2 24 -2 50 -9 58 -13 15 -66 17 -164
4z"/>
<path d="M2980 803 c-19 -3 -116 -20 -215 -39 -99 -19 -220 -37 -270 -41 -114
-9 -81 -17 121 -33 205 -15 504 7 669 51 l40 11 -28 15 c-65 33 -203 49 -317
36z"/>
<path d="M7650 781 c-159 -11 -245 -21 -261 -32 -12 -7 -12 -12 1 -35 40 -71
104 -82 268 -48 87 18 158 24 315 29 353 9 521 16 557 24 33 6 30 8 -45 24
-44 9 -120 21 -170 27 -124 14 -525 20 -665 11z"/>
</g>
</svg>
